<svg xmlns="http://www.w3.org/2000/svg" width="67" height="62.411" viewBox="0 0 67 62.411">
  <g id="checkout" transform="translate(-2.01 -2)">
    <path id="Tracé_93532" data-name="Tracé 93532" d="M59.581,39.206a2.339,2.339,0,0,0,2.154-1.649l7.181-24.519A2.272,2.272,0,0,0,66.5,10.229l-2.37.111c.048.691.1,1.4.1,2.118,0,12.282-10.748,22.29-23.938,22.29s-23.938-9.785-23.938-22.4l-.958.045-1.7-3.165A2.362,2.362,0,0,0,11.561,8H4.38a2.233,2.233,0,1,0,0,4.458h5.7L11.7,15.489,18.551,38.8,16.828,41.19a4.379,4.379,0,0,0,3.232,6.843,5.2,5.2,0,0,0-1.317,3.433,5.792,5.792,0,0,0,5.984,5.572,5.792,5.792,0,0,0,5.984-5.572,5.4,5.4,0,0,0-1.221-3.343H53.476a5.4,5.4,0,0,0-1.221,3.343,6,6,0,0,0,11.969,0A5.4,5.4,0,0,0,63,48.122h1.221a2.233,2.233,0,1,0,0-4.458h-43.4l1.652-2.3ZM58.24,50.351a1.117,1.117,0,1,1-1.2,1.114A1.147,1.147,0,0,1,58.24,50.351Zm-33.513,0a1.117,1.117,0,1,1-1.2,1.114A1.147,1.147,0,0,1,24.727,50.351Z" transform="translate(0 7.374)" fill="#00b3d7"/>
    <path id="Tracé_93533" data-name="Tracé 93533" d="M27.832,2A17.832,17.832,0,1,0,45.664,19.832,17.856,17.856,0,0,0,27.832,2ZM36.1,16.956l-8.916,8.916a2.22,2.22,0,0,1-3.143,0l-4.458-4.458a2.222,2.222,0,0,1,3.143-3.143L25.6,21.147l7.333-7.333a2.222,2.222,0,0,1,3.143,3.143Z" transform="translate(14.432)" fill="#00b3d7"/>
  </g>
</svg>
