<svg xmlns="http://www.w3.org/2000/svg" width="20" height="19.436" viewBox="0 0 20 19.436">
  <path id="grocery-store" d="M.845,1a.845.845,0,0,0,0,1.69h1.5a.586.586,0,0,1,.556.4l2.786,8.36a2.06,2.06,0,0,1,.045,1.15l-.229.919a2.184,2.184,0,0,0,2.1,2.69H17.746a.845.845,0,0,0,0-1.69H7.605a.457.457,0,0,1-.46-.589l.173-.691a.541.541,0,0,1,.525-.41H16.9a.845.845,0,0,0,.8-.578l2.253-6.76a.845.845,0,0,0-.8-1.112H5.539a.586.586,0,0,1-.556-.4l-.8-2.4A.845.845,0,0,0,3.38,1ZM6.76,17.056a1.69,1.69,0,1,0,1.69,1.69A1.69,1.69,0,0,0,6.76,17.056Zm10.141,0a1.69,1.69,0,1,0,1.69,1.69A1.69,1.69,0,0,0,16.9,17.056Z" transform="translate(0 -1)" fill="#02b3d7"/>
</svg>
