<svg xmlns="http://www.w3.org/2000/svg" width="16.39" height="16.39" viewBox="0 0 16.39 16.39">
  <g id="Groupe_14974" data-name="Groupe 14974" transform="translate(-1373.897 -44.224)">
    <g id="Groupe_13500" data-name="Groupe 13500" transform="translate(1373.897 44.224)">
      <g id="Groupe_13499" data-name="Groupe 13499">
        <g id="Groupe_13498" data-name="Groupe 13498" transform="translate(0 0)">
          <path id="Tracé_12053" data-name="Tracé 12053" d="M14.22,9.946l-.078-.028-.3-.742.033-.076c.922-2.136.859-2.2.706-2.354L13.346,5.52a.325.325,0,0,0-.215-.087,7.762,7.762,0,0,0-2.1.84l-.073.033L10.212,6l-.03-.076c-.855-2.16-.942-2.16-1.155-2.16H7.29c-.212,0-.308,0-1.1,2.164L6.159,6l-.746.31-.071-.03a11.329,11.329,0,0,0-2.135-.8.326.326,0,0,0-.215.086L1.76,6.8c-.156.157-.221.223.75,2.314l.036.078-.3.741-.075.029C0,10.818,0,10.9,0,11.124v1.738c0,.223,0,.316,2.17,1.11L2.247,14l.305.739-.033.076c-.922,2.137-.864,2.194-.707,2.354l1.229,1.227a.334.334,0,0,0,.217.087,7.79,7.79,0,0,0,2.1-.84l.073-.035.75.31.029.077c.855,2.159.943,2.159,1.156,2.159H9.1c.218,0,.309,0,1.1-2.165l.03-.079.747-.308.071.03a11.266,11.266,0,0,0,2.133.8.326.326,0,0,0,.216-.086l1.234-1.231c.155-.158.22-.223-.753-2.312l-.036-.078.3-.738.073-.029c2.169-.859,2.169-.942,2.169-1.165V11.052C16.39,10.829,16.39,10.736,14.22,9.946ZM8.2,14.776a2.818,2.818,0,1,1,2.815-2.819A2.821,2.821,0,0,1,8.2,14.776Z" transform="translate(0 -3.762)" fill="#5d5d5d"/>
        </g>
      </g>
    </g>
  </g>
</svg>
