<svg xmlns="http://www.w3.org/2000/svg" width="19.913" height="16.891" viewBox="0 0 19.913 16.891">
  <g id="group" transform="translate(0 -38.84)">
    <g id="Groupe_7755" data-name="Groupe 7755" transform="translate(15.498 47.959)">
      <g id="Groupe_7754" data-name="Groupe 7754">
        <path id="Tracé_37408" data-name="Tracé 37408" d="M400.034,273.32h-1.54a4.007,4.007,0,0,1,.243,1.377v5.82a1.716,1.716,0,0,1-.1.575h2.546a1.727,1.727,0,0,0,1.725-1.725v-3.173A2.878,2.878,0,0,0,400.034,273.32Z" transform="translate(-398.494 -273.32)" fill="#1f1f1f"/>
      </g>
    </g>
    <g id="Groupe_7757" data-name="Groupe 7757" transform="translate(0 47.959)">
      <g id="Groupe_7756" data-name="Groupe 7756">
        <path id="Tracé_37409" data-name="Tracé 37409" d="M4.172,274.7a4.006,4.006,0,0,1,.243-1.377H2.874A2.878,2.878,0,0,0,0,276.2v3.173a1.727,1.727,0,0,0,1.725,1.725H4.271a1.717,1.717,0,0,1-.1-.575Z" transform="translate(0 -273.321)" fill="#1f1f1f"/>
      </g>
    </g>
    <g id="Groupe_7759" data-name="Groupe 7759" transform="translate(5.322 46.462)">
      <g id="Groupe_7758" data-name="Groupe 7758" transform="translate(0 0)">
        <path id="Tracé_37410" data-name="Tracé 37410" d="M143.224,234.815H139.7a2.878,2.878,0,0,0-2.874,2.875v5.82a.575.575,0,0,0,.575.575h8.12a.575.575,0,0,0,.575-.575v-5.82A2.878,2.878,0,0,0,143.224,234.815Z" transform="translate(-136.829 -234.815)" fill="#1f1f1f"/>
      </g>
    </g>
    <g id="Groupe_7761" data-name="Groupe 7761" transform="translate(6.499 38.84)">
      <g id="Groupe_7760" data-name="Groupe 7760" transform="translate(0 0)">
        <path id="Tracé_37411" data-name="Tracé 37411" d="M170.571,38.84a3.456,3.456,0,1,0,3.457,3.457A3.461,3.461,0,0,0,170.571,38.84Z" transform="translate(-167.114 -38.84)" fill="#1f1f1f"/>
      </g>
    </g>
    <g id="Groupe_7763" data-name="Groupe 7763" transform="translate(1.301 42.062)">
      <g id="Groupe_7762" data-name="Groupe 7762" transform="translate(0 0)">
        <path id="Tracé_37412" data-name="Tracé 37412" d="M36.028,121.689a2.584,2.584,0,1,0,2.585,2.585A2.588,2.588,0,0,0,36.028,121.689Z" transform="translate(-33.443 -121.689)" fill="#1f1f1f"/>
      </g>
    </g>
    <g id="Groupe_7765" data-name="Groupe 7765" transform="translate(13.441 42.062)">
      <g id="Groupe_7764" data-name="Groupe 7764" transform="translate(0 0)">
        <path id="Tracé_37413" data-name="Tracé 37413" d="M348.192,121.689a2.585,2.585,0,1,0,2.585,2.585A2.588,2.588,0,0,0,348.192,121.689Z" transform="translate(-345.607 -121.689)" fill="#1f1f1f"/>
      </g>
    </g>
  </g>
</svg>
