<svg id="information-button-2" xmlns="http://www.w3.org/2000/svg" width="31.144" height="31.144" viewBox="0 0 31.144 31.144">
  <path id="Tracé_101564" data-name="Tracé 101564" d="M15.571,0A15.572,15.572,0,1,0,31.144,15.571,15.572,15.572,0,0,0,15.571,0Zm3.242,24.133q-1.2.475-1.918.722a5.06,5.06,0,0,1-1.664.249,3.316,3.316,0,0,1-2.263-.711,2.293,2.293,0,0,1-.805-1.8,6.546,6.546,0,0,1,.059-.869c.041-.3.105-.627.194-1l1-3.543c.088-.34.165-.663.225-.964a4.273,4.273,0,0,0,.09-.834,1.285,1.285,0,0,0-.279-.945,1.588,1.588,0,0,0-1.072-.265,2.813,2.813,0,0,0-.8.119c-.27.083-.5.158-.7.232l.265-1.092q.985-.4,1.885-.687a5.569,5.569,0,0,1,1.7-.287,3.254,3.254,0,0,1,2.23.7,2.321,2.321,0,0,1,.783,1.814q0,.231-.054.813a5.442,5.442,0,0,1-.2,1.069l-1,3.533c-.082.283-.154.608-.22.97a5.13,5.13,0,0,0-.1.825,1.185,1.185,0,0,0,.315.96,1.764,1.764,0,0,0,1.09.256,3.162,3.162,0,0,0,.825-.128,4.692,4.692,0,0,0,.667-.224Zm-.177-14.34a2.382,2.382,0,0,1-1.681.649,2.407,2.407,0,0,1-1.687-.649,2.07,2.07,0,0,1-.7-1.573,2.091,2.091,0,0,1,.7-1.577,2.389,2.389,0,0,1,1.687-.655,2.362,2.362,0,0,1,1.681.655,2.124,2.124,0,0,1,0,3.149Z" fill="#1f1f1f"/>
</svg>
