<svg xmlns="http://www.w3.org/2000/svg" width="35.311" height="39.818" viewBox="0 0 35.311 39.818">
  <path id="lock-2" d="M55.665,5.886c-.46,7.239-.722,14.509,1.409,20.551C59.193,32.446,63.745,37.308,73,39.818c9.257-2.51,13.809-7.372,15.929-13.381C91.062,20.4,90.8,13.125,90.339,5.886L73,0Zm9.36,18.472V16.566a2.342,2.342,0,0,1,2.468-2.181h.273V12.321c0-2.556,2.345-4.629,5.237-4.629s5.237,2.072,5.237,4.629v2.064h.273a2.342,2.342,0,0,1,2.468,2.181v7.791a2.342,2.342,0,0,1-2.468,2.181H67.493A2.342,2.342,0,0,1,65.025,24.357Zm2.337-7.791a.128.128,0,0,1,.131-.116H78.512a.128.128,0,0,1,.131.116v7.791a.128.128,0,0,1-.131.116H67.493a.128.128,0,0,1-.131-.116V16.566ZM70.1,14.385V12.321a2.922,2.922,0,0,1,5.8,0v2.064Z" transform="translate(-55.346 0)" fill-rule="evenodd"/>
</svg>
