<svg id="Composant_68_2" data-name="Composant 68 – 2" xmlns="http://www.w3.org/2000/svg" width="44" height="44" viewBox="0 0 44 44">
  <rect id="Rectangle_161031" data-name="Rectangle 161031" width="44" height="44" fill="#00b3d7"/>
  <g id="search-interface-symbol" transform="translate(11.994 12)">
    <g id="_x34__4_" transform="translate(0.006)">
      <g id="Groupe_14977" data-name="Groupe 14977" transform="translate(0)">
        <path id="Tracé_91768" data-name="Tracé 91768" d="M19.817,18.912l-5.164-5.081a8.168,8.168,0,0,0,2.183-5.55A8.349,8.349,0,0,0,8.421,0,8.348,8.348,0,0,0,.006,8.281a8.348,8.348,0,0,0,8.415,8.281,8.463,8.463,0,0,0,5.3-1.849l5.184,5.1a.654.654,0,0,0,.915,0A.63.63,0,0,0,19.817,18.912Zm-11.4-3.625A7.064,7.064,0,0,1,1.3,8.281a7.064,7.064,0,0,1,7.12-7.007,7.064,7.064,0,0,1,7.12,7.007A7.064,7.064,0,0,1,8.421,15.288Z" transform="translate(-0.006)" fill="#fff"/>
      </g>
    </g>
  </g>
</svg>
