<svg xmlns="http://www.w3.org/2000/svg" width="19.913" height="14.041" viewBox="0 0 19.913 14.041">
  <g id="XMLID_246_" transform="translate(0 -69)">
    <path id="XMLID_304_" d="M165.995,137.835a1.019,1.019,0,0,0-.765.325,3.187,3.187,0,0,0-.339,1.647,2.643,2.643,0,0,0,1.653-.346.986.986,0,0,0,.076-1.376A.876.876,0,0,0,165.995,137.835Z" transform="translate(-157.822 -65.874)" fill="#1f1f1f"/>
    <path id="XMLID_861_" d="M85.815,137.835a1.019,1.019,0,0,1,.765.325,3.187,3.187,0,0,1,.339,1.647,2.643,2.643,0,0,1-1.653-.346.986.986,0,0,1-.076-1.376A.876.876,0,0,1,85.815,137.835Z" transform="translate(-81.303 -65.874)" fill="#1f1f1f"/>
    <path id="XMLID_366_" d="M167.283,71.148a2.146,2.146,0,0,1,.306,2.57h9.21V70.71A1.711,1.711,0,0,0,175.086,69H164.7v1.846a2.156,2.156,0,0,1,2.584.3Z" transform="translate(-156.886)" fill="#1f1f1f"/>
    <path id="XMLID_370_" d="M4.058,219.437l-.85-.844,1.32-1.324H0v5.54a1.711,1.711,0,0,0,1.713,1.71H5.371v-6.4Z" transform="translate(0 -141.478)" fill="#1f1f1f"/>
    <path id="XMLID_371_" d="M165.537,217.269l1.3,1.313-.852.842-1.288-1.3v6.393h10.387a1.711,1.711,0,0,0,1.713-1.71v-5.54Z" transform="translate(-156.886 -141.478)" fill="#1f1f1f"/>
    <path id="XMLID_425_" d="M2.482,73.718a2.146,2.146,0,0,1,.306-2.57,2.156,2.156,0,0,1,2.584-.3V69H1.713A1.711,1.711,0,0,0,0,70.71v3.008Z" transform="translate(0)" fill="#1f1f1f"/>
  </g>
</svg>
